<svg version="1.1" viewBox="0 0 280.07 280.07" xml:space="preserve" xmlns="http://www.w3.org/2000/svg" xmlns:xlink="http://www.w3.org/1999/xlink"><defs><linearGradient id="linearGradient6112" x1="545.0586" x2="545.0586" y1="-1107.077" y2="-1049.556" gradientTransform="matrix(.9985311 0 0 .9373036 -435.0265 1154.188)" gradientUnits="userSpaceOnUse" xlink:href="#linearGradient6093"/><linearGradient id="linearGradient6093"><stop stop-color="#ffffff" offset="0"/><stop stop-color="#aeebfd" offset="1"/></linearGradient><linearGradient id="linearGradient6110" x1="545.0586" x2="545.0586" y1="-1107.077" y2="-1049.556" gradientTransform="matrix(.9650546 0 0 .9560358 -417.2598 1173.862)" gradientUnits="userSpaceOnUse" xlink:href="#linearGradient6093"/><linearGradient id="linearGradient6108" x1="545.0586" x2="545.0586" y1="-1107.077" y2="-1049.556" gradientTransform="matrix(.970473 0 0 .9373036 -423.0197 1154.188)" gradientUnits="userSpaceOnUse" xlink:href="#linearGradient6093"/><linearGradient id="linearGradient8279"><stop stop-color="#1284cb" offset="0"/><stop stop-color="#009fe7" offset=".4296641"/><stop stop-color="#1284c9" offset="1"/></linearGradient><linearGradient id="linearGradient1145" x1="-407.5723" x2="650.9593" y1="-112.9551" y2="945.5779" gradientTransform="matrix(.2645748 0 0 .2645748 73.9738 33.76074)" gradientUnits="userSpaceOnUse" xlink:href="#linearGradient8279"/></defs><g transform="translate(33.85955 -3.87567)"><path d="m-33.85955 3.87567h280.07v280.07h-280.07z" fill="#00aae7" style="paint-order:normal"/><path d="m-33.85955 3.87567v215.5112h215.5106v-215.5112z" fill="url(#linearGradient1145)" style="paint-order:normal"/><path d="m181.6526 219.3879v64.5578h64.55781v-64.5578z" fill="url(#linearGradient1145)" style="paint-order:normal"/><path d="m4.517789 144.2791q0 7.8974 4.95113 13.1865 5.02615 5.2891 12.52787 5.2891 4.95113 0 8.85202-2.2461 3.90089-2.3184 6.67653-6.8105l7.12662 4.1297q-3.30074 6.0862-9.37714 9.56391-6.00137 3.4778-13.5781 3.4778-11.7777 0-19.35442-7.46271-7.50173-7.4627-7.50173-18.9828 0-11.3027 7.87681-18.9103 7.8768-7.68 19.65449-7.68 7.57674 0 13.20302 3.3329 5.7013 3.2604 8.92705 9.4189l-7.4267 4.4921q-2.77564-4.7095-6.37646-6.8831-3.52581-2.246-8.55196-2.246-7.65175 0-12.6779 5.2166-4.95113 5.2166-4.95113 13.114z" fill="url(#linearGradient6108)"/><path d="m48.46612 144.424q0-11.3027 7.80179-18.9103 7.80178-7.68 19.50445-7.68 11.70268 0 19.42945 7.6076 7.726771 7.5351 7.726771 18.8378t-7.801791 18.9827q-7.80178 7.60771-19.42944 7.60771-11.70268 0-19.50447-7.53521-7.72676-7.6076-7.72676-18.9103zm9.67722-.1449q0 7.8974 5.02615 13.1865t12.60287 5.2891q7.50173 0 12.45285-5.2167 4.95114-5.2166 4.95114-13.114 0-7.8249-5.02615-13.1141-5.02615-5.3614-12.45285-5.3614-7.57674 0-12.60289 5.2166-4.95112 5.2166-4.95112 13.114z" fill="url(#linearGradient6108)"/><path d="m143.5069 148.5005 13.80068 21.20971h-11.26433l-12.38333-19.65781h-12.01032v19.65781h-9.47399v-51.73081h24.09525q9.3994 0 14.54667 4.1384 5.14729 4.0645 5.14729 11.5287 0 5.6164-3.28233 9.4592-3.20772 3.8429-9.17559 5.3948zm2.76014-14.5584q0-3.7691-2.61094-5.7644-2.61094-2.0692-7.53444-2.0692h-14.47206v15.8888h14.09908q4.92349 0 7.68363-2.1432 2.83473-2.1431 2.83473-5.912z" fill="url(#linearGradient6110)"/><path d="m192.2447 162.6097q5.01708 0 9.10794-1.8113 4.16805-1.8837 8.25891-5.9411l5.71177 5.9411q-4.78554 4.99931-10.80604 7.53511-5.94333 2.536-12.96726 2.536-12.27259 0-20.14556-7.39031-7.79578-7.4627-7.79578-19.0552 0-11.2302 7.79578-18.9103 7.79579-7.68 19.52807-7.68 11.96384 0 19.37369 7.3178 7.40988 7.2453 7.40988 18.8378 0 1.0144-.15438 2.0287-.0772.9418-.30875 2.1011h-43.37855q1.15778 6.5933 6.17488 10.5782 5.09428 3.9124 12.1954 3.9124zm-1.23498-36.7337q-6.56082 0-11.26916 3.985-4.70836 3.9124-5.86614 10.5056h33.73029q-.92622-6.8106-5.32583-10.6506t-11.26916-3.84z" fill="url(#linearGradient6112)"/><path d="m23.3603 48.26241v16.37886h-5.213851v-20.58746l10.76404.01073c4.571926 0 6.129366 3.224066 6.129366 6.152582v14.42422h-5.204441v-14.39724c0-1.226754-.635023-1.981628-2.16674-1.981628h-4.308377zm35.45344-.245977c-1.782083 0-3.161315.916145-3.737358 2.159839-.341359.74672-.458695 1.318994-.498854 2.233252h8.021261c-.10291-2.233252-1.115683-4.393091-3.785049-4.393091m-4.236212 7.941573c0 2.666853 1.657838 4.629652 4.617729 4.629652 2.302904 0 3.447456-.63816 4.778995-1.962799l3.220306 3.074718c-2.061946 2.035595-4.225546 3.271764-8.037578 3.271764-4.991091 0-9.767581-2.721449-9.767581-10.65298 0-6.776942 4.170332-10.61344 9.65024-10.61344 5.554583 0 8.76359 4.491604 8.76359 10.375v1.87809h-13.2257m-9.589372 8.657542c-4.247512 0-6.049678-2.956754-6.049678-5.877115v-20.2938h5.205697v5.609175h3.924349v4.208602h-3.924349v10.14972c0 1.196006.564744 1.859895 1.806556 1.859895h2.117793v4.34352h-3.080368m-31.48078-23.4068h-5.249618v-4.986696h5.249618zm.01325 23.64902c-3.931259-.377752-5.268449-2.762232-5.268449-5.513796l.00573-15.29016h5.262798v20.80395zm62.56811-.439874c-3.923103-.378378-5.254016-2.759093-5.254016-5.506892v-23.39864h5.254012zm18.36735-25.52397c-4.761431-23.21416-49.8237-24.68375-78.86917-7.001586v1.952135c29.01598-14.91178 70.16769-14.82393 73.91698 6.557318 1.254358 7.06998-2.729603 14.44116-9.844765 18.678v5.54329c8.564048-3.133081 17.34709-13.29284 14.79696-25.72916m-52.79802 40.61583c-20.04594 1.852994-40.93523-1.056698-43.8581-16.72084-1.430687-7.721949 2.087047-15.90761 6.753726-20.9922v-2.718935c-8.4009 7.36679-12.96028 16.69324-10.33547 27.7133 3.350195 14.13117 21.27834 22.13926 48.64275 19.47993 10.82679-1.056702 24.9975-4.538041 34.84916-9.945163v-7.681782c-8.939287 5.323032-23.73185 9.724905-36.05207 10.86569" fill="#f9f9f9" stroke-width=".34036"/></g><style type="text/css">
	.st0{fill:#00C7FD;}
	.st1{fill:#FFFFFF;}
</style></svg>
