<?xml version="1.0" encoding="UTF-8" standalone="no"?><svg xmlns="http://www.w3.org/2000/svg" xmlns:cc="http://creativecommons.org/ns#" xmlns:dc="http://purl.org/dc/elements/1.1/" xmlns:rdf="http://www.w3.org/1999/02/22-rdf-syntax-ns#" xml:space="preserve" id="svg8" width="983.30884" height="1311.1055" version="1.1" viewBox="0 0 260.16712 346.89665"><metadata id="metadata5"><rdf:RDF><cc:Work><dc:format>image/svg+xml</dc:format><dc:type rdf:resource="http://purl.org/dc/dcmitype/StillImage"/></cc:Work></rdf:RDF></metadata><g id="layer1" transform="translate(-6.3184729 13.728978)"><g id="g1294"><path id="rect1048" d="M37.380216 31.304553v5.5421h-1.521029v1.162849h1.521029v1.281413h-1.521029v10.219914h7.658668v-5.319875h3.228377V33.653509h-3.628338v10.537445h-1.473603V31.304553Z" style="fill:#fef100;fill-opacity:1;stroke:none;stroke-width:.964999;paint-order:markers stroke fill"/><path id="rect954" d="M6.3184761-1.3890236V13.944406h4.2943119V-1.3890236Z" style="fill:#abe0f9;fill-opacity:1;stroke:none;stroke-width:.964996;paint-order:markers stroke fill"/><path id="rect967" d="M6.3185005-26.143234h4.2941194v10.204605H6.3185005z" style="fill:#0071c5;fill-opacity:1;stroke:none;stroke-width:.965006;paint-order:markers stroke fill" transform="scale(1 -1)"/><path id="rect956" d="M6.3184783 13.944271v1.994389H18.148628v-1.994389Zm24.8409887 0v1.994389h28.514494v-1.994389Z" style="fill:#bdd630;fill-opacity:1;stroke:none;stroke-width:.964999;paint-order:markers stroke fill"/><path id="rect958" d="M18.14864-7.6039243h4.5440664v23.542559H18.14864z" style="fill:#00aeee;fill-opacity:1;stroke:none;stroke-width:.964997;paint-order:markers stroke fill"/><path id="rect960" d="M22.692744-7.6039789V15.93866h8.466723V2.2638521h-5.274933v-9.867831Z" style="fill:#abe0f9;fill-opacity:1;stroke:none;stroke-width:.965001;paint-order:markers stroke fill"/><path id="rect969" d="M10.612621 26.143238h31.031584v3.8213398H10.612621z" style="fill:#abe0f9;fill-opacity:1;stroke:none;stroke-width:.964997;paint-order:markers stroke fill"/><path id="rect971" d="M6.3185005 26.143242h4.2941203v3.8213389H6.3185005z" style="fill:#fdb913;fill-opacity:1;stroke:none;stroke-width:.964997;paint-order:markers stroke fill"/><path id="rect987" d="M7.1530505-6.3695984c-.5367728 1.3461471-.8345744 2.8152593-.8345744 4.3573567v.6226995h4.2943119V13.944406h7.535974V-6.3695984Z" style="fill:#fef100;fill-opacity:1;stroke:none;stroke-width:.964999;paint-order:markers stroke fill"/><path id="rect994" d="M10.612621 15.938632h31.031584v10.204609H10.612621z" style="fill:#fdb913;fill-opacity:1;stroke:none;stroke-width:.964997;paint-order:markers stroke fill"/><path id="rect996" d="M6.3185005 29.964581h35.325706v1.3400726H6.3185005z" style="fill:#bdd630;fill-opacity:1;stroke:none;stroke-width:.964997;paint-order:markers stroke fill"/><path id="path1155" d="M35.859187 31.304553v3.529419h1.521029v-3.529419Z" style="fill:#0071c5;fill-opacity:1;stroke:none;stroke-width:.964999;paint-order:markers stroke fill"/><path id="rect998" d="M6.3184783 31.304553v3.529419H34.88198v-3.529419Z" style="fill:#0071c5;fill-opacity:1;stroke:none;stroke-width:.964999;paint-order:markers stroke fill"/><path id="rect1000" d="M34.88198 31.304553v6.704949H31.5452v-3.17553h-.97698v3.17553h-3.33678v-3.17553h-.977207v3.17553H22.91768v-3.17553h-.977207v3.17553H6.3184783v1.281413H21.940473v10.219914h.977207V39.290915h3.336553v10.219914h.977207V39.290915h3.33678v10.219914h.97698V39.290915h3.33678v10.219914h.977207V39.290915h1.521029v-1.281413h-1.521029v-6.704949Z" style="fill:#ed4022;fill-opacity:1;stroke:none;stroke-width:.965001;paint-order:markers stroke fill"/><path id="path1179" d="M35.859187 34.833972v2.012681h1.521029v-2.012681Z" style="fill:#fdb913;fill-opacity:1;stroke:none;stroke-width:.964996;paint-order:markers stroke fill"/><path id="path1177" d="M31.5452 34.833972v2.012681h3.33678v-2.012681Z" style="fill:#fdb913;fill-opacity:1;stroke:none;stroke-width:.964996;paint-order:markers stroke fill"/><path id="path1175" d="M27.23144 34.833972v2.012681h3.33678v-2.012681Z" style="fill:#fdb913;fill-opacity:1;stroke:none;stroke-width:.964996;paint-order:markers stroke fill"/><path id="path1173" d="M22.91768 34.833972v2.012681h3.336553v-2.012681Z" style="fill:#fdb913;fill-opacity:1;stroke:none;stroke-width:.964996;paint-order:markers stroke fill"/><path id="rect1016" d="M6.3184783 34.833972v2.012681H21.940473v-2.012681Z" style="fill:#fdb913;fill-opacity:1;stroke:none;stroke-width:.964996;paint-order:markers stroke fill"/><path id="path1169" d="M31.5452 39.290915v10.219914h3.33678V39.290915Z" style="fill:#ffd900;fill-opacity:1;stroke:none;stroke-width:.964999;paint-order:markers stroke fill"/><path id="path1167" d="M27.23144 39.290915v10.219914h3.33678V39.290915Z" style="fill:#ffd900;fill-opacity:1;stroke:none;stroke-width:.964999;paint-order:markers stroke fill"/><path id="path1165" d="M22.91768 39.290915v10.219914h3.336553V39.290915Z" style="fill:#ffd900;fill-opacity:1;stroke:none;stroke-width:.964999;paint-order:markers stroke fill"/><path id="path1163" d="M31.5452 36.846653v1.162849h3.33678v-1.162849Z" style="fill:#ffd900;fill-opacity:1;stroke:none;stroke-width:.964999;paint-order:markers stroke fill"/><path id="path1161" d="M27.23144 36.846653v1.162849h3.33678v-1.162849Z" style="fill:#ffd900;fill-opacity:1;stroke:none;stroke-width:.964999;paint-order:markers stroke fill"/><path id="path1159" d="M22.91768 36.846653v1.162849h3.336553v-1.162849Z" style="fill:#ffd900;fill-opacity:1;stroke:none;stroke-width:.964999;paint-order:markers stroke fill"/><path id="rect1022" d="M6.3184783 36.846653v1.162849H21.940473v-1.162849Z" style="fill:#ffd900;fill-opacity:1;stroke:none;stroke-width:.964999;paint-order:markers stroke fill"/><path id="rect1035" d="M10.569443 39.290913h11.371028v10.219911H10.569443z" style="fill:#fdb913;fill-opacity:1;stroke:none;stroke-width:.964997;paint-order:markers stroke fill"/><path id="rect1037" d="M-10.569443 39.290916h4.2509699v10.219908h-4.2509699z" style="fill:#b7d233;fill-opacity:1;stroke:none;stroke-width:.964997;paint-order:markers stroke fill" transform="scale(-1 1)"/><path id="rect1059" d="M41.644287 15.938655h1.4734955v28.252182H41.644287z" style="fill:#0071c5;fill-opacity:1;stroke:none;stroke-width:.964997;paint-order:markers stroke fill"/><path id="rect1061" d="M-48.818874 2.2638505h7.1746669v11.680419h-7.1746669z" style="fill:#00aeee;fill-opacity:1;stroke:none;stroke-width:.964993;paint-order:markers stroke fill" transform="scale(-1 1)"/><path id="rect1063" d="M48.818874 2.2638505H59.67396v11.680417H48.818874z" style="fill:#0071c5;fill-opacity:1;stroke:none;stroke-width:.964993;paint-order:markers stroke fill"/><path id="rect1067" d="M48.818874-2.2638505h4.2057118v9.867835H48.818874z" style="fill:#00aeee;fill-opacity:1;stroke:none;stroke-width:.964989;paint-order:markers stroke fill" transform="scale(1 -1)"/><path id="rect1069" d="M25.884534-7.6039789v9.867831h5.274933V13.944271h10.484824V2.2638521h7.174469v-9.867831Z" style="fill:#fef100;fill-opacity:1;stroke:none;stroke-width:.964999;paint-order:markers stroke fill"/><path id="rect1077" d="M18.035073-13.728841c-4.948934 0-9.159397 3.039152-10.8820225 7.3592426H18.148762v-1.2345511h20.754289v-6.1246915h-9.663494v4.8327814h-3.354834v-4.8327814Z" style="fill:#fdb913;fill-opacity:1;stroke:none;stroke-width:.964999;paint-order:markers stroke fill"/><path id="rect1079" d="M27.562071-13.728932h1.6775337v4.8327956H27.562071z" style="fill:#fef100;fill-opacity:1;stroke:none;stroke-width:.964993;paint-order:markers stroke fill"/><path id="rect1083" d="M25.884535-13.728932h1.6775336v4.8327999H25.884535z" style="fill:#bdd630;fill-opacity:1;stroke:none;stroke-width:.964993;paint-order:markers stroke fill"/><path id="rect1101" d="M43.517853 44.190956h3.2283766v5.3198748H43.517853z" style="fill:#ffd900;fill-opacity:1;stroke:none;stroke-width:.964997;paint-order:markers stroke fill"/><path id="rect1103" d="M-48.727142 30.443611h1.9809136V49.51083h-1.9809136z" style="fill:#abe0f9;fill-opacity:1;stroke:none;stroke-width:.965002;paint-order:markers stroke fill" transform="scale(-1 1)"/><path id="rect1105" d="M-50.708057 44.190956h1.9809136v5.3198748h-1.9809136z" style="fill:#ffd900;fill-opacity:1;stroke:none;stroke-width:.964997;paint-order:markers stroke fill" transform="scale(-1 1)"/><path id="rect1107" d="M-50.708057 33.653507h1.9809172v10.537446h-1.9809172z" style="fill:#fef100;fill-opacity:1;stroke:none;stroke-width:.964997;paint-order:markers stroke fill" transform="scale(-1 1)"/><path id="rect1109" d="M43.117894 29.964647v3.688862h3.628338v-3.209857h1.980838v3.209857h1.981064v-3.688862Z" style="fill:#ffd900;fill-opacity:1;stroke:none;stroke-width:.964999;paint-order:markers stroke fill"/><path id="rect1116" d="M59.673961 3.7410681V15.93866H43.117894v14.025987h7.59024V17.239268h18.231344V7.3811491h5.536681v-3.640081h-5.536681Z" style="fill:#fef100;fill-opacity:1;stroke:none;stroke-width:.964999;paint-order:markers stroke fill"/><path id="rect1129" d="M50.708134 17.239268v32.271561h2.13486v-5.319875h6.344057v-4.937303h-6.344057V21.055053h16.096484v-3.815785H50.708134Z" style="fill:#00aeee;fill-opacity:1;stroke:none;stroke-width:.964999;paint-order:markers stroke fill"/><path id="rect1135" d="M52.842911-49.510742h6.3441348v5.3197894H52.842911z" style="fill:#ffd900;fill-opacity:1;stroke:none;stroke-width:.964997;paint-order:markers stroke fill" transform="scale(1 -1)"/><path id="rect1137" d="M60.292873 39.253746h8.6466045v4.9372063H60.292873z" style="fill:#00aeee;fill-opacity:1;stroke:none;stroke-width:.964997;paint-order:markers stroke fill"/><path id="rect1144" d="M62.336763 44.191139v5.319571h.723984l5.878711-3.394108v-1.925463Z" style="fill:#ffd900;fill-opacity:1;stroke:none;stroke-width:.964996;paint-order:markers stroke fill"/><path id="rect1146" d="M59.187051 39.253651v10.257178h3.149784v-5.319875h-2.044074v-4.937303Z" style="fill:#bdd630;fill-opacity:1;stroke:none;stroke-width:.964999;paint-order:markers stroke fill"/><path id="rect1185" d="M52.842995 21.05505H68.93948v12.598456H52.842995z" style="fill:#ffd900;fill-opacity:1;stroke:none;stroke-width:.964997;paint-order:markers stroke fill"/><path id="rect1187" d="M52.842995 35.78545h16.096483v3.4682009H52.842995z" style="fill:#abe0f9;fill-opacity:1;stroke:none;stroke-width:.965002;paint-order:markers stroke fill"/><path id="rect1189" d="M52.842995-35.78545h16.096483v2.1319425H52.842995z" style="fill:#fef100;fill-opacity:1;stroke:none;stroke-width:.964997;paint-order:markers stroke fill" transform="scale(1 -1)"/><path id="rect1191" d="M53.024569-13.728971V2.2638521h1.110453v-9.867831h2.972047v-6.1249921Z" style="fill:#f6931e;fill-opacity:1;stroke:none;stroke-width:.964999;paint-order:markers stroke fill"/><path id="rect1195" d="M38.903049 7.6039777h3.4123857v6.1249571H38.903049z" style="fill:#f6931e;fill-opacity:1;stroke:none;stroke-width:.965002;paint-order:markers stroke fill" transform="scale(1 -1)"/><path id="rect1200" d="M-53.02457 7.6039777h10.709133v6.1249571H-53.02457z" style="fill:#abe0f9;fill-opacity:1;stroke:none;stroke-width:.965002;paint-order:markers stroke fill" transform="scale(-1)"/><path id="rect1202" d="M57.107067 7.6039777h10.600075v6.1249571H57.107067z" style="fill:#0071c5;fill-opacity:1;stroke:none;stroke-width:.965002;paint-order:markers stroke fill" transform="scale(1 -1)"/><path id="rect1204" d="M67.707146 7.6039777h3.9723182v6.1249571H67.707146z" style="fill:#f6931e;fill-opacity:1;stroke:none;stroke-width:.965002;paint-order:markers stroke fill" transform="scale(1 -1)"/><path id="rect1206" d="M71.679459 7.6039777h10.782813v6.1249571H71.679459z" style="fill:#0071c5;fill-opacity:1;stroke:none;stroke-width:.965002;paint-order:markers stroke fill" transform="scale(1 -1)"/><path id="rect1208" d="M68.939458 7.3809825V46.116602l11.323341-6.537585v-8.248076h-5.786726V7.3809825Z" style="fill:#bdd630;fill-opacity:1;stroke:none;stroke-width:.964999;paint-order:markers stroke fill"/><path id="rect1212" d="M80.262799 31.330941v8.248076l14.285949-8.248076Z" style="fill:#fdb913;fill-opacity:1;stroke:none;stroke-width:.965002;paint-order:markers stroke fill"/><path id="rect1214" d="M74.476073 30.414718v.916223h20.072675l1.586984-.916223Z" style="fill:#fef100;fill-opacity:1;stroke:none;stroke-width:.964996;paint-order:markers stroke fill"/><path id="rect1216" d="M74.476073 29.498495v.916223h21.659659l1.586982-.916223Z" style="fill:#ed4022;fill-opacity:1;stroke:none;stroke-width:.964996;paint-order:markers stroke fill"/><path id="rect1218" d="M78.944534 3.7408953V22.010581h14.543815v6.571691H74.476073v.916223h23.246641l.270785-.15658V3.7408953h-4.50515Z" style="fill:#fef100;fill-opacity:1;stroke:none;stroke-width:.964999;paint-order:markers stroke fill"/><path id="rect1220" d="M97.993499 3.7408953V29.341915l1.959054-1.130679V3.7408953Z" style="fill:#ffd900;fill-opacity:1;stroke:none;stroke-width:.964996;paint-order:markers stroke fill"/><path id="rect1222" d="M99.952553-2.0354959V28.211236l1.959567-1.131715V-2.0354959Z" style="fill:#abe0f9;fill-opacity:1;stroke:none;stroke-width:.964996;paint-order:markers stroke fill"/><path id="rect1226" d="M74.476159 3.7410681V28.582058h19.012072v-6.571704H78.944393V3.7410681Z" style="fill:#00aeee;fill-opacity:1;stroke:none;stroke-width:.964999;paint-order:markers stroke fill"/><path id="rect1241" d="M54.135022-7.6039789v9.867831h43.858255v-.883258H74.53691v-8.984573Z" style="fill:#fef100;fill-opacity:1;stroke:none;stroke-width:.964999;paint-order:markers stroke fill"/><path id="rect1248" d="M97.993279 1.3805878h1.9592869v.88326055H97.993279z" style="fill:#ffd900;fill-opacity:1;stroke:none;stroke-width:.964997;paint-order:markers stroke fill"/><path id="rect1250" d="M59.673962 2.2638505h40.278603v1.4772142H59.673962z" style="fill:#f6931e;fill-opacity:1;stroke:none;stroke-width:.964997;paint-order:markers stroke fill"/><path id="rect1252" d="M74.536911-7.6039777h4.4074836v8.9845695H74.536911z" style="fill:#00aeee;fill-opacity:1;stroke:none;stroke-width:.964997;paint-order:markers stroke fill"/><path id="rect1254" d="M78.944397-2.0353439h21.008169v3.4159355H78.944397z" style="fill:#fdb913;fill-opacity:1;stroke:none;stroke-width:.964997;paint-order:markers stroke fill"/><path id="rect1256" d="M78.944397 2.0353439H101.9119v1.2358106H78.944397z" style="fill:#ed4022;fill-opacity:1;stroke:none;stroke-width:.964997;paint-order:markers stroke fill" transform="scale(1 -1)"/><path id="rect1258" d="M78.944397-7.6039777h3.517879v4.3328242h-3.517879z" style="fill:#fef100;fill-opacity:1;stroke:none;stroke-width:.964997;paint-order:markers stroke fill"/><path id="rect1260" d="M82.462273-13.728925h4.096549v10.457777h-4.096549z" style="fill:#bdd630;fill-opacity:1;stroke:none;stroke-width:.964997;paint-order:markers stroke fill"/><path id="rect1262" d="M86.558823 7.6039701h13.393742v6.1249571H86.558823z" style="fill:#0071c5;fill-opacity:1;stroke:none;stroke-width:.965002;paint-order:markers stroke fill" transform="scale(1 -1)"/><path id="rect1264" d="M99.95256-13.728925h1.9593314v10.457768H99.95256z" style="fill:#abe0f9;fill-opacity:1;stroke:none;stroke-width:.964993;paint-order:markers stroke fill"/><path id="rect1268" d="M86.558823-7.6039701h13.393742v4.3328242H86.558823z" style="fill:#fef100;fill-opacity:1;stroke:none;stroke-width:.964997;paint-order:markers stroke fill"/><path id="rect1270" d="M109.78368-11.855633v1.162848h-7.87186v.8830321h7.87186v3.147299h-7.87186v.883033h7.87186v3.147525h-7.87186v.882807h7.87186v.618347h12.38684V-11.855633Z" style="fill:#fdb913;fill-opacity:1;stroke:none;stroke-width:.964999;paint-order:markers stroke fill"/><path id="rect1272" d="M109.78368 4.0856991v1.343068h-7.87186v.883033h7.87186v3.147299h-7.87186v.8830319h7.87186v3.147298h-7.87186v.883033h7.87186v.438129h12.38684V4.0856991Z" style="fill:#fdb913;fill-opacity:1;stroke:none;stroke-width:.964999;paint-order:markers stroke fill"/><path id="rect1278" d="M101.9119 1.3983872h7.8718333v.88297027H101.9119z" style="fill:#f6931e;fill-opacity:1;stroke:none;stroke-width:.964997;paint-order:markers stroke fill"/><path id="rect1298" d="M109.78373 1.3983872h8.6332417v.88297027H109.78373z" style="fill:#fef100;fill-opacity:1;stroke:none;stroke-width:.964997;paint-order:markers stroke fill"/><path id="rect1300" d="M101.91182 10.342128h7.8718605v3.1472981H101.91182z" style="fill:#fef100;fill-opacity:1;stroke:none;stroke-width:.964997;paint-order:markers stroke fill"/><path id="rect1302" d="M101.91182 6.3118014h7.8718605v3.1472993H101.91182z" style="fill:#ffd900;fill-opacity:1;stroke:none;stroke-width:.964997;paint-order:markers stroke fill"/><path id="rect1304" d="M101.91182-1.7490889v3.147524h16.50525v.883033h-16.50525v3.147299h7.87186v-1.343068h12.38684v-5.216441h-12.38684v-.618347Z" style="fill:#ffd900;fill-opacity:1;stroke:none;stroke-width:.964999;paint-order:markers stroke fill"/><path id="rect1322" d="M101.91182-5.7794232h7.8718605v3.1472993H101.91182z" style="fill:#ffd900;fill-opacity:1;stroke:none;stroke-width:.964997;paint-order:markers stroke fill"/><path id="rect1324" d="M101.91182-9.8097582h7.8718605v3.1472993H101.91182z" style="fill:#ffd900;fill-opacity:1;stroke:none;stroke-width:.964997;paint-order:markers stroke fill"/><path id="rect1326" d="M101.91182-13.728971v3.036186h7.87186v-1.162848h12.38684v-1.873338h-3.75345v.936782h-8.63339v-.936782Z" style="fill:#ffd900;fill-opacity:1;stroke:none;stroke-width:.964999;paint-order:markers stroke fill"/><path id="rect1330" d="M109.78368-13.728925h8.6332912v.93664837H109.78368z" style="fill:#fef100;fill-opacity:1;stroke:none;stroke-width:.964997;paint-order:markers stroke fill"/><path id="rect1341" d="M122.17052-11.855634h1.8275428v10.724888H122.17052z" style="fill:#ed4022;fill-opacity:1;stroke:none;stroke-width:.964997;paint-order:markers stroke fill"/><path id="rect1343" d="M122.17052 4.0857043h1.8275428v10.724888H122.17052z" style="fill:#ed4022;fill-opacity:1;stroke:none;stroke-width:.964997;paint-order:markers stroke fill"/><path id="rect1345" d="M101.91212 18.55291v2.065507h11.19105l3.57756-2.065507Z" style="fill:#bdd630;fill-opacity:1;stroke:none;stroke-width:.964996;paint-order:markers stroke fill"/><path id="rect1347" d="M101.91212 20.618417v2.064991h7.61452l3.57653-2.064991Z" style="fill:#fef100;fill-opacity:1;stroke:none;stroke-width:.964996;paint-order:markers stroke fill"/><path id="rect1349" d="M101.91212 22.683408v2.064991h4.038l3.57652-2.064991Z" style="fill:#bdd630;fill-opacity:1;stroke:none;stroke-width:.964996;paint-order:markers stroke fill"/><path id="rect1351" d="M101.91212 24.748399v2.331122l4.038-2.331122Z" style="fill:#fef100;fill-opacity:1;stroke:none;stroke-width:.964996;paint-order:markers stroke fill"/><path id="rect1353" d="M122.17032-13.728841v1.873271h1.82779v10.7249279h-1.82779v5.216218h1.82779V14.810504h-14.21463v-.438217h-7.87187v4.180623h14.76912l3.08457-1.78077h9.26661v-30.500981Z" style="fill:#fef100;fill-opacity:1;stroke:none;stroke-width:.964999;paint-order:markers stroke fill"/><path id="rect951" d="M129.03191-13.728841V16.77214h2.95176v-30.500981Z" style="fill:#abe0f9;fill-opacity:1;stroke-width:.965002;paint-order:markers stroke fill"/><path id="rect953" d="M131.9836-13.728978h2.9516156v30.501303H131.9836z" style="fill:#bdd630;fill-opacity:1;stroke-width:.965002;paint-order:markers stroke fill"/><path id="rect955" d="M134.93521-13.728978h9.0716877v6.0398769H134.93521z" style="fill:#0071c5;fill-opacity:1;stroke-width:.964997;paint-order:markers stroke fill"/><path id="rect957" d="M144.00694-7.6891199v6.389225h12.75655v10.422267h3.12381v-16.811492h-3.12381Z" style="fill:#00aeee;fill-opacity:1;stroke-width:.964999;paint-order:markers stroke fill"/><path id="rect964" d="M134.9352-7.6891199V.57299208h18.33929V-1.2998949h-9.26755v-6.389225Z" style="fill:#ffd900;fill-opacity:1;stroke-width:.964999;paint-order:markers stroke fill"/><path id="rect968" d="M144.00694-13.728971v6.0398511h15.88036V.57299208h5.24422V-13.728971Z" style="fill:#ffd900;fill-opacity:1;stroke-width:.964999;paint-order:markers stroke fill"/><path id="rect978" d="M153.27449-1.2998949V.57299208H134.9352V2.6394231h21.82829v-3.939318Z" style="fill:#fef100;fill-opacity:1;stroke-width:.964999;paint-order:markers stroke fill"/><path id="rect985" d="M134.9352 2.6394231V16.772233h1.79745V3.6276971h20.03084v-.988274Z" style="fill:#0071c5;fill-opacity:1;stroke-width:.964999;paint-order:markers stroke fill"/><path id="rect988" d="M-165.13152 2.6394227h5.2442126v.98831815h-5.2442126z" style="fill:#0071c5;fill-opacity:1;stroke-width:.965006;paint-order:markers stroke fill" transform="scale(-1 1)"/><path id="rect995" d="M136.73265 3.6276971V16.772233h29.09716V6.4784681h-5.94251v2.643904h-3.12381v-5.494675Z" style="fill:#ffd900;fill-opacity:1;stroke-width:.964999;paint-order:markers stroke fill"/><path id="rect1005" d="M165.82981 6.4784681v4.9872139h4.27379v3.239893h8.51844V6.4784681h-12.79223Z" style="fill:#bdd630;fill-opacity:1;stroke-width:.964999;paint-order:markers stroke fill"/><path id="rect1012" d="M165.82982 11.465678h4.273787v3.2398944h-4.273787z" style="fill:#abe0f9;fill-opacity:1;stroke-width:.964997;paint-order:markers stroke fill"/><path id="rect1014" d="M165.82982 14.705577h12.792227v2.0666578H165.82982z" style="fill:#fdb913;fill-opacity:1;stroke-width:.964997;paint-order:markers stroke fill"/><path id="rect1017" d="M182.39672-13.728971v6.5138881h5.03509v10.761252h-6.99492v-4.860066h-15.30537V.57299208h-5.24422V2.6394231h5.24422v.988274h-5.24422v2.850771h18.73474V16.772233h49.35113v-2.982888h-48.44371v-2.163994h48.44371V8.6422361h-48.44371v-2.163768h15.4944v-2.932299h-3.28755V-13.728971h-4.3045v3.097388h-4.27265v-3.097388Z" style="fill:#fef100;fill-opacity:1;stroke-width:.964999;paint-order:markers stroke fill"/><path id="rect1031" d="M165.13152-7.2174039h1.7980822v5.9035106H165.13152z" style="fill:#00aeee;fill-opacity:1;stroke-width:.964997;paint-order:markers stroke fill"/><path id="rect1033" d="M-171.08386-7.2174039h4.1542692v5.9035106h-4.1542692z" style="fill:#0071c5;fill-opacity:1;stroke-width:.964997;paint-order:markers stroke fill" transform="scale(-1 1)"/><path id="rect1036" d="M171.08386-13.728932h2.531611v12.415035h-2.531611z" style="fill:#00aeee;fill-opacity:1;stroke-width:.964997;paint-order:markers stroke fill"/><path id="rect1038" d="M-180.43689-7.2174039h6.821413v5.9035048h-6.821413z" style="fill:#0071c5;fill-opacity:1;stroke-width:.964997;paint-order:markers stroke fill" transform="scale(-1 1)"/><path id="rect1040" d="M-171.08386-13.728925h5.9523473v6.5115228h-5.9523473z" style="fill:#fef100;fill-opacity:1;stroke-width:.964997;paint-order:markers stroke fill" transform="scale(-1 1)"/><path id="rect1042" d="M-180.43689 7.2174115h6.821413v6.5115237h-6.821413z" style="fill:#fef100;fill-opacity:1;stroke-width:.964997;paint-order:markers stroke fill" transform="scale(-1)"/><path id="rect1044" d="M180.43689-13.728932h1.9598292V3.546247H180.43689z" style="fill:#00aeee;fill-opacity:1;stroke-width:.964997;paint-order:markers stroke fill"/><path id="rect1046" d="M-187.43178-7.2150388h5.0350642v10.761285h-5.0350642z" style="fill:#fdb913;fill-opacity:1;stroke-width:.964997;paint-order:markers stroke fill" transform="scale(-1 1)"/><path id="rect1049" d="M-187.43178-13.728932h4.2726817v3.0974281h-4.2726817z" style="fill:#ed4022;fill-opacity:1;stroke-width:.965002;paint-order:markers stroke fill" transform="scale(-1 1)"/><path id="rect1060" d="M-195.02383-13.728925h3.2876132V3.546246h-3.2876132z" style="fill:#fdb913;fill-opacity:1;stroke-width:.964997;paint-order:markers stroke fill" transform="scale(-1 1)"/><path id="rect1068" d="M195.02386-13.728971V6.4784681h-15.4944v2.163768h55.00231v-2.163768H196.5117V-13.728971Z" style="fill:#00aeee;fill-opacity:1;stroke-width:.964999;paint-order:markers stroke fill"/><path id="rect1072" d="M179.5294 11.6254h55.00248v2.1638384H179.5294z" style="fill:#00aeee;fill-opacity:1;stroke-width:.964997;paint-order:markers stroke fill"/><path id="rect1087" d="M196.51169-13.728971h3.2092152v6.9344826H196.51169z" style="fill:#bdd630;fill-opacity:1;stroke-width:.964997;paint-order:markers stroke fill"/><path id="rect1089" d="M199.7209-13.728971h1.9538682v4.8538322H199.7209z" style="fill:#0071c5;fill-opacity:1;stroke-width:.964997;paint-order:markers stroke fill"/><path id="rect1091" d="M199.7209 6.7944913h1.9538682v2.0806494H199.7209z" style="fill:#fef100;fill-opacity:1;stroke-width:.964993;paint-order:markers stroke fill" transform="scale(1 -1)"/><path id="rect1093" d="M201.67477-13.728971h3.2092152v6.9344826H201.67477z" style="fill:#fdb913;fill-opacity:1;stroke-width:.964997;paint-order:markers stroke fill"/><path id="rect1095" d="M204.88399-13.728971h1.9538682v4.8538322H204.88399z" style="fill:#0071c5;fill-opacity:1;stroke-width:.964997;paint-order:markers stroke fill"/><path id="rect1097" d="M204.88399 6.7944913h1.9538682v2.0806494H204.88399z" style="fill:#fef100;fill-opacity:1;stroke-width:.964993;paint-order:markers stroke fill" transform="scale(1 -1)"/><path id="rect1099" d="M206.83784-13.728971h3.2092152v6.9344826H206.83784z" style="fill:#bdd630;fill-opacity:1;stroke-width:.964997;paint-order:markers stroke fill"/><path id="rect1102" d="M210.04706-13.728971h1.9538682v4.8538322H210.04706z" style="fill:#0071c5;fill-opacity:1;stroke-width:.964997;paint-order:markers stroke fill"/><path id="rect1104" d="M210.04706 6.7944913h1.9538682v2.0806494H210.04706z" style="fill:#fef100;fill-opacity:1;stroke-width:.964993;paint-order:markers stroke fill" transform="scale(1 -1)"/><path id="rect1106" d="M212.00093-13.728971h3.2092152v6.9344826H212.00093z" style="fill:#fdb913;fill-opacity:1;stroke-width:.964997;paint-order:markers stroke fill"/><path id="rect1108" d="M215.21014-13.728971h1.9538682v4.8538322H215.21014z" style="fill:#0071c5;fill-opacity:1;stroke-width:.964997;paint-order:markers stroke fill"/><path id="rect1110" d="M215.21014 6.7944913h1.9538682v2.0806494H215.21014z" style="fill:#fef100;fill-opacity:1;stroke-width:.964993;paint-order:markers stroke fill" transform="scale(1 -1)"/><path id="rect1112" d="M217.16402-13.728971h3.2092152v6.9344826H217.16402z" style="fill:#bdd630;fill-opacity:1;stroke-width:.964997;paint-order:markers stroke fill"/><path id="rect1114" d="M220.37323-13.728971h1.9538682v4.8538322H220.37323z" style="fill:#0071c5;fill-opacity:1;stroke-width:.964997;paint-order:markers stroke fill"/><path id="rect1117" d="M220.37323 6.7944913h1.9538682v2.0806494H220.37323z" style="fill:#fef100;fill-opacity:1;stroke-width:.964993;paint-order:markers stroke fill" transform="scale(1 -1)"/><path id="rect1119" d="M222.3271-13.728971h3.2092152v6.9344826H222.3271z" style="fill:#fdb913;fill-opacity:1;stroke-width:.964997;paint-order:markers stroke fill"/><path id="rect1125" d="M196.51169-6.7944989h29.024616v3.0997217H196.51169z" style="fill:#abe0f9;fill-opacity:1;stroke-width:.964997;paint-order:markers stroke fill"/><path id="rect1127" d="M206.83784-3.6947753h3.2092152v10.173244H206.83784z" style="fill:#bdd630;fill-opacity:1;stroke-width:.964997;paint-order:markers stroke fill"/><path id="rect1130" d="M196.51169-6.4784656h10.326159v10.173242H196.51169z" style="fill:#fef100;fill-opacity:1;stroke-width:.964997;paint-order:markers stroke fill" transform="scale(1 -1)"/><path id="rect1132" d="M225.53635-13.728971v4.8537421h10.4916V16.772233h1.95396v-30.501204Z" style="fill:#0071c5;fill-opacity:1;stroke-width:.964996;paint-order:markers stroke fill"/><path id="rect1136" d="M234.53177.61883708V15.135123h-6.5586v1.63711h8.05478V.61883708Z" style="fill:#fdb913;fill-opacity:1;stroke-width:.964996;paint-order:markers stroke fill"/><path id="rect1140" d="M-234.53188 13.789233h6.5587373v1.3458585h-6.5587373z" style="fill:#abe0f9;fill-opacity:1;stroke-width:.964993;paint-order:markers stroke fill" transform="scale(-1 1)"/><path id="rect1145" d="M-234.53178 8.6422377h6.5586028v2.9831131h-6.5586028z" style="fill:#abe0f9;fill-opacity:1;stroke-width:.964993;paint-order:markers stroke fill" transform="scale(-1 1)"/><path id="rect1147" d="M-234.53178.61883861h6.5586023v5.8596263h-6.5586023z" style="fill:#abe0f9;fill-opacity:1;stroke-width:.964993;paint-order:markers stroke fill" transform="scale(-1 1)"/><path id="rect1149" d="M-234.53178-.61883861h2.2010314v9.4940701h-2.2010314z" style="fill:#ed4022;fill-opacity:1;stroke-width:.964997;paint-order:markers stroke fill" transform="scale(-1)"/><path id="rect1154" d="M225.53635-8.8752289v5.180531h-15.48919v10.173166h17.92601V.61883708h4.35757V-8.8752289Z" style="fill:#fef100;fill-opacity:1;stroke-width:.964999;paint-order:markers stroke fill"/><path id="rect1161" d="M234.53178-8.8752337h1.4961796V.6188335H234.53178z" style="fill:#fef100;fill-opacity:1;stroke-width:.964997;paint-order:markers stroke fill"/><path id="rect1163" d="M-243.32759.61883861h5.3456702v14.516284h-5.3456702z" style="fill:#abe0f9;fill-opacity:1;stroke-width:.964993;paint-order:markers stroke fill" transform="scale(-1 1)"/><path id="rect1165" d="M237.98192 15.135119h14.360367v1.6371958H237.98192z" style="fill:#fdb913;fill-opacity:1;stroke-width:.964997;paint-order:markers stroke fill"/><path id="rect1167" d="M243.32761.61883861h9.0146828v14.516284H243.32761z" style="fill:#ffd900;fill-opacity:1;stroke-width:.964993;paint-order:markers stroke fill"/><path id="rect1169" d="M237.98191-13.728971V.61883708h5.34563V-5.8467209h2.28165v-5.2412841h-2.28165v-2.640966Z" style="fill:#fef100;fill-opacity:1;stroke-width:.964999;paint-order:markers stroke fill"/><path id="rect1176" d="M245.60921-11.088002h5.0800977v7.0787673H245.60921z" style="fill:#00aeee;fill-opacity:1;stroke-width:.964997;paint-order:markers stroke fill"/><path id="rect1178" d="M250.68909-11.088175v5.2415414h15.15618c-.71404-2.0746852-1.99042-3.8827656-3.65146-5.2415414Z" style="fill:#fef100;fill-opacity:1;stroke-width:.964996;paint-order:markers stroke fill"/><path id="rect1182" d="M243.32778-13.728841v2.640666h18.86603c-2.0186-1.651262-4.60163-2.640666-7.42487-2.640666Z" style="fill:#bdd630;fill-opacity:1;stroke-width:.964994;paint-order:markers stroke fill"/><path id="rect1184" d="M243.32778-5.8466336V.61860564h9.01444V5.7841798h14.14332v-7.7964215c0-1.3446468-.22699-2.6335592-.64027-3.8343919h-15.15618v1.8370974h-5.0798v-1.8370974Z" style="fill:#fdb913;fill-opacity:1;stroke-width:.964999;paint-order:markers stroke fill"/><path id="rect1196" d="M252.34238 5.7840152h14.143228v5.1662445H252.34238z" style="fill:#fef100;fill-opacity:1;stroke-width:.964997;paint-order:markers stroke fill"/><path id="rect1198" d="M252.34238 14.161258h14.143228v2.6110604H252.34238z" style="fill:#fef100;fill-opacity:1;stroke-width:.964997;paint-order:markers stroke fill"/><path id="rect1201" d="M252.34238 10.950259h14.143228v3.2109976H252.34238z" style="fill:#0071c5;fill-opacity:1;stroke-width:.964997;paint-order:markers stroke fill"/><g id="g410"><path id="rect847" d="M982.80078 37.521122c.22323 1.469043.37494 2.962846.45117 4.476563-.0762-1.513718-.22794-3.007517-.45117-4.476563Zm-554.0254 77.757818L214.45897 239.01527H-.0000121v999.25193c0 40.2246 32.6133191 72.8379 72.8378911 72.8379H910.4707c40.22457 0 72.83789-32.6133 72.83789-72.8379V115.27894Z" style="fill:#0071c5;fill-opacity:1;stroke-width:3.64723;paint-order:markers stroke fill" transform="translate(6.3184761 -13.728882) scale(.26458333)"/><g id="g863" style="fill:#fff;fill-opacity:1;stroke-width:2.28819" transform="translate(76.790788 67.913226) scale(.43702611)"><path id="path4423" d="M48.533843 70.892571v69.807769H26.312071V52.955227l45.877048.04555c19.485841 0 26.123753 13.741188 26.123753 26.222716v61.476947H76.131211V79.338499c0-5.228502-2.706512-8.445826-9.234784-8.445826H48.533843Zm151.104867-1.048375c-7.59537 0-13.47374 3.904665-15.92887 9.205365-1.45489 3.182567-1.95499 5.621639-2.12615 9.518268h34.18713c-.4386-9.518268-4.75512-18.723633-16.13211-18.723633m-18.05502 33.847494c0 11.36629 7.06582 19.73189 19.68106 19.73189 9.81513 0 14.69327-2.71989 20.3684-8.3656l13.72514 13.10467c-8.78815 8.67584-18.00955 13.94445-34.25667 13.94445-21.27236 0-41.63007-11.59898-41.63007-45.403678 0-28.883764 17.77422-45.23517 41.12994-45.23517 23.67399 0 37.35099 19.143505 37.35099 44.218897v8.004541h-56.36879m-40.87053 36.899c-18.10316 0-25.78411-12.60187-25.78411-25.04863V29.04857h22.18701v23.906657h16.72583v17.937344h-16.72583v43.258779c0 5.09745 2.40699 7.92699 7.69966 7.92699h9.02617v18.51235h-13.12873M6.540063 40.829396h-22.374204V19.575765H6.540063Zm.056285 100.793624c-16.755249-1.61-22.454439-11.7728-22.454439-23.50015l.02422-65.167643H6.5965218v88.667793Zm266.669322-1.87477c-16.72049-1.61268-22.39293-11.75943-22.39293-23.47073V16.550984h22.39293Zm78.28302-108.784796C331.25516-67.976807 139.19687-74.240295 15.403208 1.1222409v8.3201285C139.07117-54.112591 314.46246-53.738181 330.44214 37.390081c5.34616 30.132719-11.63375 61.549164-41.95903 79.606849v23.62586c36.50053-13.35339 73.93442-56.65496 63.06556-109.659336M126.5201 204.07075c-85.437092 7.89758-174.468603-4.50372-186.926064-71.2653-6.09768-32.911439 8.895132-67.799274 28.784816-89.470122V31.747059c-35.805174 31.397718-55.23753 71.147651-44.050421 118.115851 14.278751 60.22797 90.689662 94.35895 207.318539 83.02475 46.14449-4.50372 106.54096-19.34142 148.52939-42.38692v-32.74025c-38.09982 22.6871-101.14665 41.44816-153.65626 46.31026" style="fill:#fff;fill-opacity:1;stroke-width:2.04173"/></g><path id="rect867" d="M78.901032 187.00627v4.55632h4.311954v-4.55632Zm.117888 9.05188v22.66751h4.076403v-22.66751Z" style="fill:#fff;fill-opacity:1;stroke-width:.964999;paint-order:markers stroke fill"/><path id="rect871" d="M101.04008 195.43258c-3.704171 0-6.344994 1.35663-7.845666 3.81171v-1.70756h-.0056c-.05856-.82848-.743549-1.47858-1.587425-1.47858H89.20406v22.66751h4.076402v-12.2594c0-6.14326 4.441448-7.46745 6.474367-7.46745 1.647441 0 2.870461.35058 3.809331 1.31064.98956 1.01189 1.29148 2.68299 1.29148 4.04479v14.37142h4.07618v-15.18883c0-6.16606-4.18757-8.10425-7.89174-8.10425Z" style="fill:#fff;fill-opacity:1;stroke-width:.964996;paint-order:markers stroke fill"/><path id="path896" d="M122.53616 195.43258c-4.85886 0-8.71041 1.86049-8.71041 6.61168 0 4.39173 3.50098 5.57128 7.12095 6.55273h-.00023c.30549.0819.62549.16807.88913.23871.0393.009.0802.021.11992.0316 3.78996 1.01551 4.55857 1.88089 4.55857 3.40295 0 1.70402-1.03099 3.58858-4.50301 3.58858-4.31192 0-7.08549-2.442-7.08549-2.442l-1.86453 2.82661s2.93401 3.06871 8.67585 3.06871c4.88039 0 8.81813-2.14055 8.81813-7.12862 0-4.83733-4.61393-5.91554-8.5268-6.96399-.0394-.0101-.0801-.0212-.11992-.0319-3.51798-.94264-4.04095-1.88067-4.04095-3.40272 0-1.32332.92259-2.92643 4.39461-2.92643s6.21307 1.769 6.21307 1.769l1.56304-2.83722s-2.75075-2.35821-7.50194-2.35821Z" style="fill:#fff;fill-opacity:1;stroke:none;stroke-width:.264583px;stroke-linecap:butt;stroke-linejoin:miter;stroke-opacity:1"/><path id="rect901" d="M135.01266 187.00627v4.55632h4.31218v-4.55632Zm.11789 9.05188v22.66751h4.0764v-22.66751Z" style="fill:#fff;fill-opacity:1;stroke-width:.964999;paint-order:markers stroke fill"/><path id="path905" d="M161.56213 186.21697v9.81859h-.00024v2.84717c-1.77649-2.39345-4.02311-3.45015-7.66838-3.45015-6.58586 0-9.91616 5.75687-9.91616 11.88774 0 5.30087 1.99035 12.00833 9.82493 12.00833 3.70416 0 6.34499-1.35663 7.84566-3.81172v1.70758h.006c.0586.82848.74355 1.47857 1.58743 1.47857h2.39728v-32.48611Zm-6.4746 12.74593c2.03292 0 6.47437 1.31083 6.47437 7.39241v1.93973c0 6.14327-4.44145 7.46739-6.47437 7.46738-5.46246 0-6.88381-3.91958-6.88381-8.4421 0-4.47711 1.75637-8.35742 6.88381-8.35742Z" style="fill:#fff;fill-opacity:1;stroke-width:.964996;paint-order:markers stroke fill"/><path id="path927" d="M181.16457 195.43258c-2.19285 0-10.47673.79296-10.77367 11.46135-.25448 9.14305 5.64181 12.46483 11.4742 12.46483 5.54304 0 7.9028-2.69185 7.9028-2.69185l-1.75523-2.67055s-1.9447 1.78368-6.02585 1.78368c-7.70546 0-7.534-7.44638-7.534-7.44638h15.86387s.22832-1.0134.22832-2.60415c0-1.86487-.15218-10.29693-9.38044-10.29693Zm.0752 3.44564c6.01067 0 5.4486 6.34112 5.4486 6.34112H174.5556s.52122-6.34112 6.68417-6.34112Z" style="fill:#fff;fill-opacity:1;stroke:none;stroke-width:.264583px;stroke-linecap:butt;stroke-linejoin:miter;stroke-opacity:1"/><path id="path216" d="M118.11432 287.2199q4.80669 0 7.28927-3.16494 2.53539-3.16496 2.53539-9.49483 0-6.27716-2.53539-9.4421-2.48258-3.21771-7.28927-3.21771-4.80667 0-7.34207 3.21771-2.48257 3.16494-2.48257 9.4421 0 6.32987 2.48257 9.49483 2.5354 3.16494 7.34207 3.16494Zm0 6.32989q-4.12001 0-7.44771-1.26598-3.3277-1.31872-5.65181-3.74517-2.27129-2.47921-3.53899-6.01341-1.21487-3.53419-1.21487-7.9651 0-4.43094 1.21487-7.91237 1.2677-3.5342 3.53899-5.96067 2.32411-2.4792 5.65181-3.79793t7.44771-1.31873q4.12002 0 7.44772 1.31873 3.32771 1.31873 5.599 3.79793 2.32411 2.42647 3.53898 5.96067 1.2677 3.48143 1.2677 7.91237 0 4.43091-1.2677 7.9651-1.21487 3.5342-3.53898 6.01341-2.27129 2.42645-5.599 3.74517-3.3277 1.26598-7.44772 1.26598Z" style="font-size:52.0847px;line-height:1.25;font-family:&quot;Intel Clear W&quot;;-inkscape-font-specification:&quot;Intel Clear W&quot;;letter-spacing:0;word-spacing:0;fill:#fff;stroke-width:3.55123"/><path id="path214" d="M98.064187 290.2266q-2.060007 1.52972-4.965144 2.42646-2.852317.89673-6.496944.89673-4.384116 0-7.764641-1.31872-3.380524-1.37147-5.704633-3.79793-2.324109-2.47921-3.538986-5.96066-1.214875-3.53419-1.214875-7.85962 0-4.53642 1.320517-8.07061 1.320517-3.58694 3.750269-6.01339 2.429751-2.42647 5.810275-3.69244 3.433344-1.26599 7.658998-1.26599 6.655406 0 10.722598 3.1122l-2.852316 5.32766q-1.637442-1.10773-3.486166-1.58247-1.795902-.5275-3.803088-.5275-5.440531 0-8.292847 3.27045-2.799496 3.27045-2.799496 9.44209 0 6.1189 2.799496 9.3366 2.852316 3.21769 8.292847 3.21769 2.37693 0 4.278475-.58024 1.901544-.63298 3.433345-1.68797Z" style="font-size:52.0847px;line-height:1.25;font-family:&quot;Intel Clear W&quot;;-inkscape-font-specification:&quot;Intel Clear W&quot;;letter-spacing:0;word-spacing:0;fill:#fff;stroke-width:3.56931"/><path id="path218" d="M168.73882 267.017q0 3.74517-2.10557 6.54088-2.10555 2.74296-5.68499 3.58694l10.31721 15.61374h-8.84333l-7.68525-12.6598q-.57902-.94947-1.10543-1.26597-.52638-.3165-1.63181-.3165h-2.26346v14.24227h-7.47472v-36.3969h13.94931q2.89513 0 5.21125.73849 2.31609.73849 3.9479 2.10997 1.6318 1.37146 2.47403 3.37593.89486 1.95173.89486 4.43095Zm-7.63263.58022q0-2.69019-1.42125-3.95616-1.42125-1.266-4.57959-1.266h-5.36916v10.65532h5.21125q3.00042 0 4.57957-1.37146 1.57918-1.37148 1.57918-4.0617Z" style="font-size:52.0847px;line-height:1.25;font-family:&quot;Intel Clear W&quot;;-inkscape-font-specification:&quot;Intel Clear W&quot;;letter-spacing:0;word-spacing:0;fill:#fff;stroke-width:3.56931"/><path id="path220" d="M183.53954 277.30308v9.44209h17.41393v6.01339h-25.095v-36.3969h24.77933v6.0134h-17.09826v8.9146h14.46777v6.01342Z" style="font-size:52.0847px;line-height:1.25;font-family:&quot;Intel Clear W&quot;;-inkscape-font-specification:&quot;Intel Clear W&quot;;letter-spacing:0;word-spacing:0;fill:#fff;stroke-width:3.56931"/></g></g></g></svg>